<svg id="docs_1_" data-name="docs (1)" xmlns="http://www.w3.org/2000/svg" width="25.097" height="30.442" viewBox="0 0 25.097 30.442">
  <path id="Path_10" data-name="Path 10" d="M127.678,37.25V17.81l-7.361-7.361h-8.193a2.4,2.4,0,0,0-2.4,2.4v24.4a2.4,2.4,0,0,0,2.4,2.4H125.28a2.4,2.4,0,0,0,2.4-2.4Zm0,0" transform="translate(-103.202 -9.828)" fill="#0084ff"/>
  <path id="Path_11" data-name="Path 11" d="M290.261,17.81h4.963l-7.361-7.361v4.963a2.4,2.4,0,0,0,2.4,2.4Zm0,0" transform="translate(-270.748 -9.828)" fill="#10bafc"/>
  <path id="Path_12" data-name="Path 12" d="M24.915,7.542,17.554.181A.621.621,0,0,0,17.115,0H3.019A3.023,3.023,0,0,0,0,3.019v24.4a3.023,3.023,0,0,0,3.02,3.019H22.078A3.023,3.023,0,0,0,25.1,27.422V7.982a.621.621,0,0,0-.182-.439ZM17.737,2.121l5.24,5.24H19.513a1.777,1.777,0,0,1-1.777-1.777ZM22.078,29.2H3.019a1.779,1.779,0,0,1-1.777-1.777V3.019A1.779,1.779,0,0,1,3.019,1.242H16.494V5.583A3.019,3.019,0,0,0,19.513,8.6h4.341V27.422A1.779,1.779,0,0,1,22.078,29.2Zm0,0" transform="translate(0 0.001)"/>
  <path id="Path_13" data-name="Path 13" d="M215.922,351.492h-.278a.621.621,0,0,0,0,1.243h.278a.621.621,0,1,0,0-1.243Zm0,0" transform="translate(-202.239 -330.594)"/>
  <path id="Path_14" data-name="Path 14" d="M86.382,351.492H80.348a.621.621,0,1,0,0,1.243h6.034a.621.621,0,0,0,0-1.243Zm0,0" transform="translate(-74.987 -330.594)"/>
  <path id="Path_15" data-name="Path 15" d="M94.722,303.746H80.348a.621.621,0,0,0,0,1.243H94.722a.621.621,0,0,0,0-1.243Zm0,0" transform="translate(-74.987 -285.686)"/>
  <path id="Path_16" data-name="Path 16" d="M94.722,256H80.348a.621.621,0,0,0,0,1.243H94.722a.621.621,0,0,0,0-1.243Zm0,0" transform="translate(-74.987 -240.779)"/>
  <path id="Path_17" data-name="Path 17" d="M94.722,208.254H80.348a.621.621,0,0,0,0,1.243H94.722a.621.621,0,0,0,0-1.243Zm0,0" transform="translate(-74.987 -195.872)"/>
</svg>
