<svg xmlns="http://www.w3.org/2000/svg" width="62.94" height="53.18" viewBox="0 0 62.94 53.18">
  <g id="surface1" transform="translate(0 -0.5)">
    <path id="Path_1" data-name="Path 1" d="M122.479,97.407v29.876a5.288,5.288,0,0,1-5.29,5.29H69.535V97.407a5.288,5.288,0,0,1,5.29-5.29h42.364A5.288,5.288,0,0,1,122.479,97.407Zm0,0" transform="translate(-60.987 -80.355)" fill="#00acea"/>
    <path id="Path_2" data-name="Path 2" d="M35.414,14.326l6.418,7.852H24.068a5.288,5.288,0,0,0-5.29,5.29V62.634H16.954a5.288,5.288,0,0,1-5.29-5.29V17.681a5.288,5.288,0,0,1,5.29-5.29H31.322A5.329,5.329,0,0,1,35.414,14.326Zm0,0" transform="translate(-10.23 -10.429)" fill="#00efd1"/>
    <path id="Path_3" data-name="Path 3" d="M56.2,10.384H32.256l-6-7.393A6.706,6.706,0,0,0,21.077.5H6.724A6.78,6.78,0,0,0,0,7.252V46.943A6.776,6.776,0,0,0,6.724,53.68H56.216a6.779,6.779,0,0,0,6.724-6.752V17.053A6.729,6.729,0,0,0,56.2,10.384ZM7.1,17.053V50.9H6.724a3.987,3.987,0,0,1-3.94-3.968V7.252a3.987,3.987,0,0,1,3.94-3.968H21.091A3.925,3.925,0,0,1,24.112,4.76l4.552,5.625H13.838A6.729,6.729,0,0,0,7.1,17.053ZM60.142,46.929A4,4,0,0,1,56.2,50.9H9.884V17.053a3.946,3.946,0,0,1,3.954-3.884H56.2a3.934,3.934,0,0,1,3.94,3.884Zm0,0" fill="#083863"/>
    <path id="Path_4" data-name="Path 4" d="M184.4,147.043h-.71a13.608,13.608,0,0,0-13.254,13.6,13.536,13.536,0,0,0,3.509,9.119,13.674,13.674,0,0,0,9.745,4.483h.724a13.607,13.607,0,0,0-.014-27.2Zm-9.285,19.686a10.877,10.877,0,0,1-1.8-4.706h2.409a18.012,18.012,0,0,0,.654,3.731C175.951,166.06,175.52,166.38,175.116,166.729Zm.627-7.49h-2.409a10.807,10.807,0,0,1,1.8-4.705,14.666,14.666,0,0,0,1.281.974A16.359,16.359,0,0,0,175.743,159.238Zm1.239,9.578c.153-.125.306-.264.474-.376.236.459.487.891.751,1.309A13.511,13.511,0,0,1,176.982,168.816Zm.474-15.982c-.167-.125-.32-.251-.474-.376a9.633,9.633,0,0,1,1.225-.919A9.729,9.729,0,0,0,177.455,152.835Zm5.165,17.694a10.251,10.251,0,0,1-2.785-3.494,11.1,11.1,0,0,1,2.785-.738Zm0-7.031a13.972,13.972,0,0,0-3.717.919,14.822,14.822,0,0,1-.376-2.395h4.093Zm0-4.26h-4.093a14.588,14.588,0,0,1,.376-2.395,13.972,13.972,0,0,0,3.717.919Zm0-4.274a11.1,11.1,0,0,1-2.785-.738,10.393,10.393,0,0,1,2.785-3.494Zm2.784-4.232a10.5,10.5,0,0,1,2.784,3.48,10.555,10.555,0,0,1-2.784.752Zm0,19.8V166.3a10.583,10.583,0,0,1,2.784.751A10.36,10.36,0,0,1,185.4,170.529Zm3.745-6.1a14.069,14.069,0,0,0-3.745-.933v-1.476h4.162A14.994,14.994,0,0,1,189.149,164.431Zm-3.745-5.193v-1.476a13.572,13.572,0,0,0,3.745-.933,14.724,14.724,0,0,1,.417,2.408Zm4.5,10.5a12.863,12.863,0,0,0,.738-1.281l.46.375A11.765,11.765,0,0,1,189.9,169.735Zm.724-16.929a12.689,12.689,0,0,0-.738-1.281,9.226,9.226,0,0,1,1.2.9Q190.876,152.619,190.625,152.807Zm2.325,13.964a12.255,12.255,0,0,0-1.267-.975,18.3,18.3,0,0,0,.668-3.759h2.408A10.666,10.666,0,0,1,192.95,166.77Zm-.6-7.532a18.3,18.3,0,0,0-.668-3.759,14.552,14.552,0,0,0,1.267-.974,10.834,10.834,0,0,1,1.823,4.747h-2.422Zm0,0" transform="translate(-149.486 -128.529)" fill="#083863"/>
  </g>
</svg>
